<svg xmlns="http://www.w3.org/2000/svg" viewBox="0 0 30 30"><title>interface-settings</title><g id="Layer_2" data-name="Layer 2"><g id="Interface"><g id="interface-settings"><path d="M17.155,1.99785l1.23155,1.45179a2.8259,2.8259,0,0,0,2.38615.98838l1.89741-.15573A2.8259,2.8259,0,0,1,25.71771,7.3299L25.562,9.22731a2.8259,2.8259,0,0,0,.98838,2.38615L28.00215,12.845a2.82591,2.82591,0,0,1,0,4.31l-1.45179,1.23155a2.8259,2.8259,0,0,0-.98838,2.38615l.15573,1.89741a2.8259,2.8259,0,0,1-3.04761,3.04761L20.77269,25.562a2.8259,2.8259,0,0,0-2.38615.98838L17.155,28.00215a2.82591,2.82591,0,0,1-4.31,0l-1.23155-1.45179A2.8259,2.8259,0,0,0,9.22731,25.562l-1.89741.15573A2.8259,2.8259,0,0,1,4.28229,22.6701L4.438,20.77269a2.8259,2.8259,0,0,0-.98838-2.38615L1.99785,17.155a2.82591,2.82591,0,0,1,0-4.31l1.45179-1.23155A2.8259,2.8259,0,0,0,4.438,9.22731L4.28229,7.3299A2.8259,2.8259,0,0,1,7.3299,4.28229L9.22731,4.438a2.8259,2.8259,0,0,0,2.38615-.98838L12.845,1.99785A2.82591,2.82591,0,0,1,17.155,1.99785Z" fill="none" stroke="#ffdd15" stroke-linecap="round" stroke-linejoin="round" stroke-width="2"/><circle cx="15" cy="15" r="4" fill="none" stroke="#ffdd15" stroke-linecap="round" stroke-linejoin="round" stroke-width="2"/></g></g></g></svg>